<svg xmlns="http://www.w3.org/2000/svg" viewBox="0 0 3000 562" width="3000px" height="562px" class="svg-logo" data-name="full-color-logo">null<g clip-path="url(#clip0_800_434)">
<path d="M747.138 179.864L652.62 27.8945C629.497 -9.31901 575.572 -9.31901 552.449 27.8945L471.068 158.759C454.978 184.607 417.508 184.607 401.418 158.759L320.037 27.8945C296.914 -9.31901 242.989 -9.31901 219.894 27.8945L0 381.423H55.5571L150.075 533.393C173.198 570.606 227.123 570.606 250.218 533.393L331.599 402.528C347.689 376.68 385.159 376.68 401.249 402.528L482.63 533.393C505.753 570.606 559.678 570.606 582.773 533.393L802.639 179.864H747.138ZM691.581 179.864L540.297 423.071C523.981 449.311 485.921 449.311 469.605 423.071L389.462 294.255C366.002 256.508 311.289 256.508 287.828 294.255L207.713 423.071C191.398 449.311 153.338 449.311 137.022 423.071L111.114 381.395L262.37 138.188C278.686 111.948 316.746 111.948 333.061 138.188L413.204 267.004C436.665 304.751 491.378 304.751 514.839 267.004L594.982 138.188C611.297 111.948 649.357 111.948 665.673 138.188L691.581 179.864Z" fill="#6F60F5" stroke-opacity="0"/>
<path d="M2653.89 196.732C2618.67 196.732 2589.36 212.449 2578.27 246.07H2577.18C2566.37 215.872 2540.13 196.732 2508.9 196.732C2473.85 196.732 2446.03 214.245 2435.74 246.07H2434.64V203.889H2387.89L2388.34 445.384H2436.33V307.475C2436.33 267.932 2461.05 239.194 2495.04 239.194C2523.36 239.194 2539.59 260.663 2539.59 298.073V445.384H2586.49V303.125C2586.49 272.114 2604.86 239.194 2638.84 239.194C2666.97 239.194 2683.09 259.541 2683.09 294.986V445.384H2729.92V287.325C2729.92 232.29 2700.1 196.732 2653.89 196.732Z" fill="#121113" stroke-opacity="0"/>
<path d="M1595.99 203.973V131.959H1548.79V203.973H1501.05V245.031H1548.51V445.412H1595.26V245.031H1654.31V203.973H1595.99Z" fill="#121113" stroke-opacity="0"/>
<path d="M2061.32 203.973C2038.51 203.973 2014.77 219.773 2008.27 241.131H2006.69V203.973H1961.43V445.272H2008.27V315.389C2008.27 283.312 2017.58 245.032 2061.97 245.032H2097.95V203.973H2061.27H2061.32Z" fill="#121113" stroke-opacity="0"/>
<path d="M1164.59 115.878V385.186H1162.54L993.305 115.878H928.324V445.244H976.427V177.087H978.424L1149.91 445.244H1211.68L1212.66 115.878H1164.56H1164.59Z" fill="#121113" stroke-opacity="0"/>
<path d="M1818.39 197.35C1783.71 197.35 1757.07 212.14 1741.01 240.232H1739.91V203.973H1692.71V539.4H1739.91V408.956H1741.01C1757.38 436.488 1785.39 452.091 1818.84 452.091C1881.4 452.091 1921.85 402.137 1921.85 324.791C1921.85 247.445 1881.26 197.322 1818.39 197.322V197.378V197.35ZM1807.87 410.556C1760.27 410.556 1743.31 366.102 1743.31 324.566C1743.31 283.031 1760.27 239.334 1807.87 239.334C1848.91 239.334 1873.44 271.244 1873.44 324.679C1873.44 378.113 1848.32 410.64 1807.87 410.64V410.584V410.556Z" fill="#121113" stroke-opacity="0"/>
<path d="M1434.02 363.997C1430.36 391.781 1404.34 412.689 1373.37 412.689C1331.06 412.689 1300.85 382.239 1298.94 338.262H1484.66L1484.74 335.343C1486.01 290.805 1474.02 254.096 1450.05 229.203C1429.83 208.183 1401.95 197.097 1369.46 197.097C1298.88 197.097 1251.48 248.259 1251.48 324.398C1251.48 360.264 1263.35 392.679 1284.82 415.748C1307.04 439.575 1337.53 452.147 1372.92 452.147C1427.13 452.147 1473.18 414.737 1480.1 365.147L1480.24 363.997H1434.05V364.053L1434.02 363.997ZM1369.57 235.461C1405.86 235.461 1430.79 261.168 1433.74 301.301H1300.88C1307.29 261.197 1333.93 235.461 1369.55 235.461H1369.57Z" fill="#121113" stroke-opacity="0"/>
<path d="M2298.12 363.997C2294.47 391.781 2268.45 412.689 2237.45 412.689C2195.14 412.689 2164.93 382.239 2163.01 338.262H2348.73L2348.84 335.343C2350.08 290.805 2338.12 254.096 2314.16 229.203C2293.93 208.183 2266.06 197.097 2233.56 197.097C2162.99 197.097 2115.59 248.259 2115.59 324.398C2115.59 360.264 2127.46 392.679 2148.92 415.748C2171.14 439.575 2201.64 452.147 2237.02 452.147C2291.23 452.147 2337.28 414.737 2344.2 365.147L2344.34 363.997H2298.15V364.053L2298.12 363.997ZM2233.65 235.461C2269.94 235.461 2294.86 261.168 2297.81 301.301H2164.98C2171.4 261.197 2198.01 235.461 2233.65 235.461Z" fill="#121113" stroke-opacity="0"/>
<path d="M2949.2 363.997C2945.54 391.781 2919.52 412.689 2888.55 412.689C2846.24 412.689 2816.03 382.239 2814.12 338.262H2999.8L2999.92 335.343C3001.18 290.805 2989.2 254.096 2965.23 229.203C2945.01 208.183 2917.13 197.097 2884.64 197.097C2814.06 197.097 2766.66 248.259 2766.66 324.398C2766.66 360.264 2778.53 392.679 2799.99 415.748C2822.22 439.575 2852.71 452.147 2888.1 452.147C2942.3 452.147 2988.35 414.737 2995.27 365.147L2995.41 363.997H2949.23V364.053L2949.2 363.997ZM2884.75 235.461C2921.04 235.461 2945.96 261.168 2948.92 301.301H2816.06C2822.47 261.197 2849.11 235.461 2884.72 235.461H2884.75Z" fill="#121113" stroke-opacity="0"/>
</g><path d="M747.138 179.864L652.62 27.8945C629.497 -9.31901 575.572 -9.31901 552.449 27.8945L471.068 158.759C454.978 184.607 417.508 184.607 401.418 158.759L320.037 27.8945C296.914 -9.31901 242.989 -9.31901 219.894 27.8945L0 381.423H55.5571L150.075 533.393C173.198 570.606 227.123 570.606 250.218 533.393L331.599 402.528C347.689 376.68 385.159 376.68 401.249 402.528L482.63 533.393C505.753 570.606 559.678 570.606 582.773 533.393L802.639 179.864H747.138ZM691.581 179.864L540.297 423.071C523.981 449.311 485.921 449.311 469.605 423.071L389.462 294.255C366.002 256.508 311.289 256.508 287.828 294.255L207.713 423.071C191.398 449.311 153.338 449.311 137.022 423.071L111.114 381.395L262.37 138.188C278.686 111.948 316.746 111.948 333.061 138.188L413.204 267.004C436.665 304.751 491.378 304.751 514.839 267.004L594.982 138.188C611.297 111.948 649.357 111.948 665.673 138.188L691.581 179.864Z" fill="#6F60F5" stroke-opacity="0"/><path d="M2653.89 196.732C2618.67 196.732 2589.36 212.449 2578.27 246.07H2577.18C2566.37 215.872 2540.13 196.732 2508.9 196.732C2473.85 196.732 2446.03 214.245 2435.74 246.07H2434.64V203.889H2387.89L2388.34 445.384H2436.33V307.475C2436.33 267.932 2461.05 239.194 2495.04 239.194C2523.36 239.194 2539.59 260.663 2539.59 298.073V445.384H2586.49V303.125C2586.49 272.114 2604.86 239.194 2638.84 239.194C2666.97 239.194 2683.09 259.541 2683.09 294.986V445.384H2729.92V287.325C2729.92 232.29 2700.1 196.732 2653.89 196.732Z" fill="#121113" stroke-opacity="0"/><path d="M1595.99 203.973V131.959H1548.79V203.973H1501.05V245.031H1548.51V445.412H1595.26V245.031H1654.31V203.973H1595.99Z" fill="#121113" stroke-opacity="0"/><path d="M2061.32 203.973C2038.51 203.973 2014.77 219.773 2008.27 241.131H2006.69V203.973H1961.43V445.272H2008.27V315.389C2008.27 283.312 2017.58 245.032 2061.97 245.032H2097.95V203.973H2061.27H2061.32Z" fill="#121113" stroke-opacity="0"/><path d="M1164.59 115.878V385.186H1162.54L993.305 115.878H928.324V445.244H976.427V177.087H978.424L1149.91 445.244H1211.68L1212.66 115.878H1164.56H1164.59Z" fill="#121113" stroke-opacity="0"/><path d="M1818.39 197.35C1783.71 197.35 1757.07 212.14 1741.01 240.232H1739.91V203.973H1692.71V539.4H1739.91V408.956H1741.01C1757.38 436.488 1785.39 452.091 1818.84 452.091C1881.4 452.091 1921.85 402.137 1921.85 324.791C1921.85 247.445 1881.26 197.322 1818.39 197.322V197.378V197.35ZM1807.87 410.556C1760.27 410.556 1743.31 366.102 1743.31 324.566C1743.31 283.031 1760.27 239.334 1807.87 239.334C1848.91 239.334 1873.44 271.244 1873.44 324.679C1873.44 378.113 1848.32 410.64 1807.87 410.64V410.584V410.556Z" fill="#121113" stroke-opacity="0"/><path d="M1434.02 363.997C1430.36 391.781 1404.34 412.689 1373.37 412.689C1331.06 412.689 1300.85 382.239 1298.94 338.262H1484.66L1484.74 335.343C1486.01 290.805 1474.02 254.096 1450.05 229.203C1429.83 208.183 1401.95 197.097 1369.46 197.097C1298.88 197.097 1251.48 248.259 1251.48 324.398C1251.48 360.264 1263.35 392.679 1284.82 415.748C1307.04 439.575 1337.53 452.147 1372.92 452.147C1427.13 452.147 1473.18 414.737 1480.1 365.147L1480.24 363.997H1434.05V364.053L1434.02 363.997ZM1369.57 235.461C1405.86 235.461 1430.79 261.168 1433.74 301.301H1300.88C1307.29 261.197 1333.93 235.461 1369.55 235.461H1369.57Z" fill="#121113" stroke-opacity="0"/><path d="M2298.12 363.997C2294.47 391.781 2268.45 412.689 2237.45 412.689C2195.14 412.689 2164.93 382.239 2163.01 338.262H2348.73L2348.84 335.343C2350.08 290.805 2338.12 254.096 2314.16 229.203C2293.93 208.183 2266.06 197.097 2233.56 197.097C2162.99 197.097 2115.59 248.259 2115.59 324.398C2115.59 360.264 2127.46 392.679 2148.92 415.748C2171.14 439.575 2201.64 452.147 2237.02 452.147C2291.23 452.147 2337.28 414.737 2344.2 365.147L2344.34 363.997H2298.15V364.053L2298.12 363.997ZM2233.65 235.461C2269.94 235.461 2294.86 261.168 2297.81 301.301H2164.98C2171.4 261.197 2198.01 235.461 2233.65 235.461Z" fill="#121113" stroke-opacity="0"/><path d="M2949.2 363.997C2945.54 391.781 2919.52 412.689 2888.55 412.689C2846.24 412.689 2816.03 382.239 2814.12 338.262H2999.8L2999.92 335.343C3001.18 290.805 2989.2 254.096 2965.23 229.203C2945.01 208.183 2917.13 197.097 2884.64 197.097C2814.06 197.097 2766.66 248.259 2766.66 324.398C2766.66 360.264 2778.53 392.679 2799.99 415.748C2822.22 439.575 2852.71 452.147 2888.1 452.147C2942.3 452.147 2988.35 414.737 2995.27 365.147L2995.41 363.997H2949.23V364.053L2949.2 363.997ZM2884.75 235.461C2921.04 235.461 2945.96 261.168 2948.92 301.301H2816.06C2822.47 261.197 2849.11 235.461 2884.72 235.461H2884.75Z" fill="#121113" stroke-opacity="0"/><path d="M747.138 179.864L652.62 27.8945C629.497 -9.31901 575.572 -9.31901 552.449 27.8945L471.068 158.759C454.978 184.607 417.508 184.607 401.418 158.759L320.037 27.8945C296.914 -9.31901 242.989 -9.31901 219.894 27.8945L0 381.423H55.5571L150.075 533.393C173.198 570.606 227.123 570.606 250.218 533.393L331.599 402.528C347.689 376.68 385.159 376.68 401.249 402.528L482.63 533.393C505.753 570.606 559.678 570.606 582.773 533.393L802.639 179.864H747.138ZM691.581 179.864L540.297 423.071C523.981 449.311 485.921 449.311 469.605 423.071L389.462 294.255C366.002 256.508 311.289 256.508 287.828 294.255L207.713 423.071C191.398 449.311 153.338 449.311 137.022 423.071L111.114 381.395L262.37 138.188C278.686 111.948 316.746 111.948 333.061 138.188L413.204 267.004C436.665 304.751 491.378 304.751 514.839 267.004L594.982 138.188C611.297 111.948 649.357 111.948 665.673 138.188L691.581 179.864Z" fill="#6F60F5" stroke-opacity="0"/><path d="M2653.89 196.732C2618.67 196.732 2589.36 212.449 2578.27 246.07H2577.18C2566.37 215.872 2540.13 196.732 2508.9 196.732C2473.85 196.732 2446.03 214.245 2435.74 246.07H2434.64V203.889H2387.89L2388.34 445.384H2436.33V307.475C2436.33 267.932 2461.05 239.194 2495.04 239.194C2523.36 239.194 2539.59 260.663 2539.59 298.073V445.384H2586.49V303.125C2586.49 272.114 2604.86 239.194 2638.84 239.194C2666.97 239.194 2683.09 259.541 2683.09 294.986V445.384H2729.92V287.325C2729.92 232.29 2700.1 196.732 2653.89 196.732Z" fill="#121113" stroke-opacity="0"/><path d="M1595.99 203.973V131.959H1548.79V203.973H1501.05V245.031H1548.51V445.412H1595.26V245.031H1654.31V203.973H1595.99Z" fill="#121113" stroke-opacity="0"/><path d="M2061.32 203.973C2038.51 203.973 2014.77 219.773 2008.27 241.131H2006.69V203.973H1961.43V445.272H2008.27V315.389C2008.27 283.312 2017.58 245.032 2061.97 245.032H2097.95V203.973H2061.27H2061.32Z" fill="#121113" stroke-opacity="0"/><path d="M1164.59 115.878V385.186H1162.54L993.305 115.878H928.324V445.244H976.427V177.087H978.424L1149.91 445.244H1211.68L1212.66 115.878H1164.56H1164.59Z" fill="#121113" stroke-opacity="0"/><path d="M1818.39 197.35C1783.71 197.35 1757.07 212.14 1741.01 240.232H1739.91V203.973H1692.71V539.4H1739.91V408.956H1741.01C1757.38 436.488 1785.39 452.091 1818.84 452.091C1881.4 452.091 1921.85 402.137 1921.85 324.791C1921.85 247.445 1881.26 197.322 1818.39 197.322V197.378V197.35ZM1807.87 410.556C1760.27 410.556 1743.31 366.102 1743.31 324.566C1743.31 283.031 1760.27 239.334 1807.87 239.334C1848.91 239.334 1873.44 271.244 1873.44 324.679C1873.44 378.113 1848.32 410.64 1807.87 410.64V410.584V410.556Z" fill="#121113" stroke-opacity="0"/><path d="M1434.02 363.997C1430.36 391.781 1404.34 412.689 1373.37 412.689C1331.06 412.689 1300.85 382.239 1298.94 338.262H1484.66L1484.74 335.343C1486.01 290.805 1474.02 254.096 1450.05 229.203C1429.83 208.183 1401.95 197.097 1369.46 197.097C1298.88 197.097 1251.48 248.259 1251.48 324.398C1251.48 360.264 1263.35 392.679 1284.82 415.748C1307.04 439.575 1337.53 452.147 1372.92 452.147C1427.13 452.147 1473.18 414.737 1480.1 365.147L1480.24 363.997H1434.05V364.053L1434.02 363.997ZM1369.57 235.461C1405.86 235.461 1430.79 261.168 1433.74 301.301H1300.88C1307.29 261.197 1333.93 235.461 1369.55 235.461H1369.57Z" fill="#121113" stroke-opacity="0"/><path d="M2298.12 363.997C2294.47 391.781 2268.45 412.689 2237.45 412.689C2195.14 412.689 2164.93 382.239 2163.01 338.262H2348.73L2348.84 335.343C2350.08 290.805 2338.12 254.096 2314.16 229.203C2293.93 208.183 2266.06 197.097 2233.56 197.097C2162.99 197.097 2115.59 248.259 2115.59 324.398C2115.59 360.264 2127.46 392.679 2148.92 415.748C2171.14 439.575 2201.64 452.147 2237.02 452.147C2291.23 452.147 2337.28 414.737 2344.2 365.147L2344.34 363.997H2298.15V364.053L2298.12 363.997ZM2233.65 235.461C2269.94 235.461 2294.86 261.168 2297.81 301.301H2164.98C2171.4 261.197 2198.01 235.461 2233.65 235.461Z" fill="#121113" stroke-opacity="0"/><path d="M2949.2 363.997C2945.54 391.781 2919.52 412.689 2888.55 412.689C2846.24 412.689 2816.03 382.239 2814.12 338.262H2999.8L2999.92 335.343C3001.18 290.805 2989.2 254.096 2965.23 229.203C2945.01 208.183 2917.13 197.097 2884.64 197.097C2814.06 197.097 2766.66 248.259 2766.66 324.398C2766.66 360.264 2778.53 392.679 2799.99 415.748C2822.22 439.575 2852.71 452.147 2888.1 452.147C2942.3 452.147 2988.35 414.737 2995.27 365.147L2995.41 363.997H2949.23V364.053L2949.2 363.997ZM2884.75 235.461C2921.04 235.461 2945.96 261.168 2948.92 301.301H2816.06C2822.47 261.197 2849.11 235.461 2884.72 235.461H2884.75Z" fill="#121113" stroke-opacity="0"/></svg>